<svg width="70" height="70" viewBox="0 0 70 70" fill="none" xmlns="http://www.w3.org/2000/svg">
<g clip-path="url(#clip0_2336_115)">
<path d="M60.55 37.1C61.7652 37.0999 62.9645 36.8248 64.0581 36.2953C65.1518 35.7657 66.1114 34.9954 66.8649 34.0422C67.6185 33.089 68.1465 31.9775 68.4093 30.7912C68.6721 29.6048 68.663 28.3744 68.3825 27.1921C68.1021 26.0097 67.5576 24.9063 66.79 23.9643C66.0223 23.0224 65.0514 22.2665 63.95 21.7533C62.8486 21.24 61.6453 20.9828 60.4303 21.0008C59.2154 21.0189 58.0202 21.3117 56.9345 21.8575C57.4708 20.8943 57.7515 19.8098 57.75 18.7075C57.75 14.8575 54.3025 11.7075 50.05 11.7075C48.0525 11.6915 46.1199 12.4159 44.625 13.741C44.7391 13.2521 44.7978 12.7519 44.8 12.25C44.8 7.80495 40.411 4.19995 35 4.19995C29.589 4.19995 25.2 7.80495 25.2 12.2499C25.201 12.7578 25.2597 13.2639 25.375 13.7585C23.8802 12.4334 21.9476 11.709 19.95 11.7249C15.6975 11.7249 12.25 14.8749 12.25 18.7249C12.2485 19.8273 12.5293 20.9118 13.0655 21.8749C11.9798 21.3226 10.7828 21.024 9.56478 21.0014C8.34679 20.9789 7.13957 21.233 6.03408 21.7448C4.92859 22.2565 3.95365 23.0125 3.18274 23.9557C2.41183 24.899 1.86504 26.0049 1.58359 27.1901C1.30213 28.3753 1.29333 29.609 1.55787 30.7981C1.82241 31.9872 2.35338 33.1008 3.11077 34.055C3.86816 35.0091 4.83221 35.7789 5.9303 36.3063C7.02839 36.8338 8.23186 37.1051 9.45005 37.1C9.56905 37.1 9.68455 37.1 9.80005 37.1L60.2 37.1C60.3155 37.1 60.431 37.1 60.55 37.1Z" stroke="#7E1CFE" stroke-width="3" stroke-linejoin="bevel"/>
<path d="M3.75903 23.541C2.24922 25.0508 1.40102 27.0986 1.40102 29.2338C1.40102 31.369 2.24922 33.4167 3.75903 34.9265C5.26884 36.4363 7.31659 37.2845 9.45178 37.2845C11.587 37.2845 13.6347 36.4363 15.1445 34.9265L15.1445 30.415" stroke="#7E1CFE" stroke-width="3" stroke-miterlimit="10"/>
<path d="M66.2411 23.191C67.7239 24.706 68.5494 26.7446 68.5382 28.8645C68.5271 30.9843 67.6802 33.0142 66.1814 34.5134C64.6827 36.0126 62.653 36.8601 60.5332 36.872C58.4134 36.8838 56.3744 36.0589 54.8591 34.5765L54.8591 30.6845" stroke="#7E1CFE" stroke-width="3" stroke-miterlimit="10"/>
<path d="M36.75 37.1001L36.75 28.35L26.334 17.2375" stroke="#7E1CFE" stroke-width="3" stroke-miterlimit="10"/>
<path d="M39.6725 15.7395L30.996 21.8575" stroke="#7E1CFE" stroke-width="3" stroke-miterlimit="10"/>
<path d="M13.0655 21.8575L18.9 26.075" stroke="#7E1CFE" stroke-width="3" stroke-miterlimit="10"/>
<path d="M56.8785 21.8575L52.15 24.85L45.15 24.85" stroke="#7E1CFE" stroke-width="3" stroke-miterlimit="10"/>
<path d="M35 53.2L35 36.4" stroke="#7E1CFE" stroke-width="3" stroke-miterlimit="10"/>
<path d="M24.15 37.45L24.15 45.85L16.5655 50.05" stroke="#7E1CFE" stroke-width="3" stroke-miterlimit="10"/>
<path d="M45.5 37.45L45.5 45.85L53.0845 50.05" stroke="#7E1CFE" stroke-width="3" stroke-miterlimit="10"/>
<path d="M29.4 59.85C29.4 62.9428 31.9072 65.45 35 65.45C38.0928 65.45 40.6 62.9428 40.6 59.85C40.6 56.7572 38.0928 54.25 35 54.25C31.9072 54.25 29.4 56.7572 29.4 59.85Z" stroke="#EA0022" stroke-width="3" stroke-miterlimit="10"/>
<path d="M4.89998 52.15C4.89998 55.2428 7.40718 57.75 10.5 57.75C13.5928 57.75 16.1 55.2428 16.1 52.15C16.1 49.0573 13.5928 46.55 10.5 46.55C7.40718 46.55 4.89998 49.0573 4.89998 52.15Z" stroke="#EA0022" stroke-width="3" stroke-miterlimit="10"/>
<path d="M53.9 52.15C53.9 55.2428 56.4072 57.75 59.5 57.75C62.5928 57.75 65.1 55.2428 65.1 52.15C65.1 49.0573 62.5928 46.55 59.5 46.55C56.4072 46.55 53.9 49.0573 53.9 52.15Z" stroke="#EA0022" stroke-width="3" stroke-miterlimit="10"/>
</g>
<defs>
<clipPath id="clip0_2336_115">
<rect width="70" height="70" fill="white" transform="translate(70) rotate(90)"/>
</clipPath>
</defs>
</svg>
