<svg width="72" height="75" viewBox="0 0 72 75" fill="none" xmlns="http://www.w3.org/2000/svg">
<path d="M54.3966 23.8955C51.9281 23.8955 49.9199 26.0335 49.9199 28.6617C49.9199 31.2898 51.9281 33.4278 54.3966 33.4278C56.8652 33.4278 58.8733 31.2898 58.8733 28.6617C58.8733 26.0335 56.8652 23.8955 54.3966 23.8955ZM54.3966 31.5719C52.8894 31.5719 51.6631 30.2663 51.6631 28.6617C51.6631 27.057 52.8894 25.7514 54.3966 25.7514C55.9039 25.7514 57.1301 27.057 57.1301 28.6617C57.1301 30.2663 55.904 31.5719 54.3966 31.5719Z" fill="#754DE8" stroke="#754DE8"/>
<path d="M54.3966 29.9458C55.0627 29.9458 55.6027 29.3709 55.6027 28.6617C55.6027 27.9525 55.0627 27.3776 54.3966 27.3776C53.7304 27.3776 53.1904 27.9525 53.1904 28.6617C53.1904 29.3709 53.7304 29.9458 54.3966 29.9458Z" fill="#754DE8" stroke="#754DE8"/>
<path d="M11.585 54.7053C9.11644 54.7053 7.10828 56.8433 7.10828 59.4715C7.10828 62.0996 9.11644 64.2376 11.585 64.2376C14.0535 64.2376 16.0617 62.0996 16.0617 59.4715C16.0617 56.8433 14.0535 54.7053 11.585 54.7053ZM11.585 62.3817C10.0777 62.3817 8.85148 61.0762 8.85148 59.4715C8.85148 57.8668 10.0777 56.5612 11.585 56.5612C13.0922 56.5612 14.3185 57.8668 14.3185 59.4715C14.3185 61.0762 13.0924 62.3817 11.585 62.3817Z" fill="#754DE8" stroke="#754DE8"/>
<path d="M11.585 60.7556C12.2512 60.7556 12.7912 60.1807 12.7912 59.4715C12.7912 58.7623 12.2512 58.1874 11.585 58.1874C10.9189 58.1874 10.3789 58.7623 10.3789 59.4715C10.3789 60.1807 10.9189 60.7556 11.585 60.7556Z" fill="#754DE8" stroke="#754DE8"/>
<path d="M23.9933 5.42761C21.5248 5.42761 19.5166 7.56562 19.5166 10.1938C19.5166 12.8219 21.5248 14.9599 23.9933 14.9599C26.4618 14.9599 28.47 12.8219 28.47 10.1938C28.47 7.56562 26.4618 5.42761 23.9933 5.42761ZM23.9933 13.104C22.4861 13.104 21.2598 11.7985 21.2598 10.1938C21.2598 8.58907 22.4861 7.28352 23.9933 7.28352C25.5005 7.28352 26.7268 8.58907 26.7268 10.1938C26.7268 11.7985 25.5005 13.104 23.9933 13.104Z" fill="#754DE8" stroke="#754DE8"/>
<path d="M23.9942 11.4779C24.6604 11.4779 25.2004 10.903 25.2004 10.1938C25.2004 9.48459 24.6604 8.90967 23.9942 8.90967C23.3281 8.90967 22.7881 9.48459 22.7881 10.1938C22.7881 10.903 23.3281 11.4779 23.9942 11.4779Z" fill="#754DE8" stroke="#754DE8"/>
<path d="M43.8035 54.0591H34.7779C34.2964 54.0591 33.9062 54.4745 33.9062 54.987C33.9062 55.4996 34.2964 55.915 34.7779 55.915H43.8035C44.285 55.915 44.6751 55.4996 44.6751 54.987C44.6751 54.4745 44.2848 54.0591 43.8035 54.0591Z" fill="#754DE8" stroke="#754DE8"/>
<path d="M43.8035 58.6635H34.7779C34.2964 58.6635 33.9062 59.0788 33.9062 59.5914C33.9062 60.104 34.2964 60.5194 34.7779 60.5194H43.8035C44.285 60.5194 44.6751 60.104 44.6751 59.5914C44.6751 59.0788 44.2848 58.6635 43.8035 58.6635Z" fill="#754DE8" stroke="#754DE8"/>
<path d="M43.8035 63.2679H34.7779C34.2964 63.2679 33.9062 63.6833 33.9062 64.1959C33.9062 64.7085 34.2964 65.1239 34.7779 65.1239H43.8035C44.285 65.1239 44.6751 64.7085 44.6751 64.1959C44.6751 63.6833 44.2848 63.2679 43.8035 63.2679Z" fill="#754DE8" stroke="#754DE8"/>
<path d="M68.6628 21.2197H61.0341V15.1928C61.0341 14.9467 60.9422 14.7106 60.7788 14.5367L48.3176 1.27181C48.1542 1.09786 47.9325 1 47.7013 1H16.3503C15.8689 1 15.4787 1.41539 15.4787 1.92796V45.6431H1.8716C1.39016 45.6431 1 46.0585 1 46.5711V72.7565C1 73.269 1.39016 73.6844 1.8716 73.6844H50.5727C51.0541 73.6844 51.4443 73.269 51.4443 72.7565V66.5174H60.1625C60.644 66.5174 61.0341 66.102 61.0341 65.5894V36.4886H68.6628C69.9515 36.4886 71 35.3723 71 34.0003V23.7081C71 22.3359 69.9517 21.2197 68.6628 21.2197ZM48.5731 4.16804L58.0582 14.2649H48.5731V4.16804ZM49.7011 71.8287H2.7432V47.499H49.7011V71.8287ZM59.2909 64.6615H51.4443V46.5711C51.4443 46.0585 51.0541 45.6431 50.5727 45.6431H17.2219V2.85591H46.8299V15.1928C46.8299 15.7054 47.22 16.1208 47.7015 16.1208H59.2909V21.2197H49.5938C48.3051 21.2197 47.2566 22.3359 47.2566 23.7079V34.0001C47.2566 35.3722 48.3051 36.4884 49.5938 36.4884H59.2909V64.6615ZM69.2568 34.0003C69.2568 34.3491 68.9904 34.6327 68.6628 34.6327H49.5938C49.2662 34.6327 48.9998 34.3491 48.9998 34.0003V23.7081C48.9998 23.3594 49.2662 23.0757 49.5938 23.0757H68.6628C68.9904 23.0757 69.2568 23.3594 69.2568 23.7081V34.0003Z" fill="#754DE8" stroke="#754DE8"/>
<path d="M66.3682 26.1322H60.7271C60.2456 26.1322 59.8555 26.5476 59.8555 27.0602C59.8555 27.5727 60.2456 27.9881 60.7271 27.9881H66.3682C66.8497 27.9881 67.2398 27.5727 67.2398 27.0602C67.2398 26.5476 66.8497 26.1322 66.3682 26.1322Z" fill="#754DE8" stroke="#754DE8"/>
<path d="M66.3682 29.3352H60.7271C60.2456 29.3352 59.8555 29.7506 59.8555 30.2632C59.8555 30.7757 60.2456 31.1911 60.7271 31.1911H66.3682C66.8497 31.1911 67.2398 30.7757 67.2398 30.2632C67.2398 29.7506 66.8497 29.3352 66.3682 29.3352Z" fill="#754DE8" stroke="#754DE8"/>
<path d="M9.72617 43.8298C9.83203 44.2297 10.1748 44.5059 10.565 44.5059C10.9551 44.5059 11.2979 44.2297 11.4038 43.8298L12.9885 37.846C13.0102 37.764 13.0213 37.6793 13.0213 37.5941V6.12241C13.0213 5.60984 12.6311 5.19446 12.1497 5.19446H8.98024C8.4988 5.19446 8.10864 5.60984 8.10864 6.12241V37.5943C8.10864 37.6795 8.11958 37.7642 8.14145 37.8462L9.72617 43.8298ZM10.1317 38.5223H10.9984L10.565 40.1587L10.1317 38.5223ZM11.2781 7.05037V36.6663H9.85184V7.05037H11.2781Z" fill="#754DE8" stroke="#754DE8"/>
<path d="M1.8716 44.5061H5.04106C5.5225 44.5061 5.91266 44.0907 5.91266 43.5781V12.1062C5.91266 12.021 5.90172 11.9363 5.87985 11.8543L4.29513 5.87052C4.18927 5.47065 3.84649 5.19446 3.45633 5.19446C3.06617 5.19446 2.72339 5.47065 2.61753 5.87052L1.0328 11.8543C1.01093 11.9363 1 12.021 1 12.1062V43.5781C1 44.0905 1.39016 44.5061 1.8716 44.5061ZM2.7432 42.6501V13.0342H4.16946V42.6501H2.7432ZM3.88975 11.1783H3.02291L3.45633 9.54185L3.88975 11.1783Z" fill="#754DE8" stroke="#754DE8"/>
</svg>
